<svg width="275" height="39" viewBox="0 0 275 39" fill="none" xmlns="http://www.w3.org/2000/svg">
<path fill-rule="evenodd" clip-rule="evenodd" d="M0 35.3225L22.0271 24.1541V1L0 35.3225ZM13.9224 19.0336C13.6833 19.4554 13.5638 19.9344 13.5638 20.4706C13.5638 21.0069 13.6833 21.4859 13.9224 21.9077C14.1667 22.3294 14.4968 22.66 14.9126 22.8995C15.3336 23.1338 15.804 23.251 16.3238 23.251C16.9371 23.251 17.4699 23.0974 17.9221 22.7902C18.3795 22.4778 18.6992 22.043 18.8811 21.4859H17.6258C17.5011 21.7463 17.3243 21.9441 17.0956 22.0795C16.8721 22.2096 16.6123 22.2747 16.316 22.2747C15.9989 22.2747 15.7156 22.2018 15.4661 22.056C15.2219 21.9051 15.0295 21.6942 14.8892 21.4234C14.7541 21.1475 14.6865 20.8299 14.6865 20.4706C14.6865 20.1062 14.7541 19.7886 14.8892 19.5178C15.0295 19.2471 15.2219 19.0388 15.4661 18.893C15.7156 18.7421 15.9989 18.6666 16.316 18.6666C16.6123 18.6666 16.8721 18.7316 17.0956 18.8618C17.3243 18.992 17.5011 19.1872 17.6258 19.4475H18.8811C18.6992 18.8957 18.3795 18.4635 17.9221 18.1511C17.4647 17.8387 16.9319 17.6825 16.3238 17.6825C15.804 17.6825 15.3336 17.8023 14.9126 18.0418C14.4968 18.2761 14.1667 18.6067 13.9224 19.0336Z" fill="#062E4B"/>
<path fill-rule="evenodd" clip-rule="evenodd" d="M48.1336 35.3225L26.1064 24.1541V1L48.1336 35.3225ZM30.2249 21.0564V17.6825H29.1334V21.0486C29.1334 21.512 29.2296 21.9051 29.4219 22.2279C29.6142 22.5455 29.8741 22.785 30.2015 22.9464C30.5342 23.1078 30.9032 23.1885 31.3087 23.1885C31.7193 23.1885 32.0909 23.1078 32.4236 22.9464C32.7614 22.785 33.0291 22.5455 33.2266 22.2279C33.4294 21.9051 33.5307 21.512 33.5307 21.0486V17.6825H32.4314V21.0564C32.4314 21.4261 32.3352 21.7098 32.1429 21.9077C31.9506 22.1003 31.6777 22.1966 31.3243 22.1966C30.976 22.1966 30.7057 22.1003 30.5134 21.9077C30.3211 21.7098 30.2249 21.4261 30.2249 21.0564Z" fill="#062E4B"/>
<path fill-rule="evenodd" clip-rule="evenodd" d="M46.7929 38.9999L24.2219 27.5591L1.65088 38.9999H46.7929ZM22.9462 36.4293C23.2513 36.5588 23.5925 36.6235 23.97 36.6235C24.3681 36.6235 24.712 36.551 25.0015 36.406C25.2911 36.2558 25.5109 36.0563 25.6608 35.8077C25.8108 35.5591 25.8857 35.2898 25.8857 34.9997C25.8857 34.6631 25.8056 34.3911 25.6453 34.184C25.485 33.9768 25.2937 33.8214 25.0713 33.7178C24.849 33.6142 24.562 33.5106 24.2104 33.407C23.9519 33.3293 23.7502 33.262 23.6054 33.205C23.4658 33.1429 23.3469 33.0652 23.2487 32.972C23.1556 32.8735 23.1091 32.7518 23.1091 32.6068C23.1091 32.3996 23.1711 32.2416 23.2952 32.1329C23.4245 32.0241 23.5951 31.9697 23.8071 31.9697C24.0501 31.9697 24.244 32.0319 24.3888 32.1562C24.5388 32.2753 24.6189 32.4281 24.6292 32.6146H25.8237C25.7875 32.1277 25.5936 31.7496 25.242 31.4803C24.8955 31.2057 24.4431 31.0685 23.8847 31.0685C23.5124 31.0685 23.1814 31.1332 22.8919 31.2627C22.6023 31.387 22.3774 31.5683 22.2171 31.8066C22.0568 32.0448 21.9767 32.3245 21.9767 32.6456C21.9767 32.9875 22.0542 33.262 22.2094 33.4692C22.3696 33.6712 22.5584 33.824 22.7755 33.9276C22.9979 34.026 23.2849 34.127 23.6365 34.2306C23.895 34.3031 24.0967 34.3704 24.2414 34.4326C24.3914 34.4895 24.5155 34.5698 24.6137 34.6734C24.712 34.777 24.7611 34.9091 24.7611 35.0697C24.7611 35.2665 24.6887 35.427 24.5439 35.5513C24.3992 35.6705 24.2001 35.73 23.9467 35.73C23.6985 35.73 23.502 35.6653 23.3573 35.5358C23.2176 35.4063 23.1401 35.2302 23.1246 35.0075H21.9612C21.9663 35.339 22.0568 35.6264 22.2326 35.8699C22.4084 36.1133 22.6463 36.2998 22.9462 36.4293Z" fill="#062E4B"/>
<path d="M24.0665 1V25.3799M24.0665 25.3799L0.679688 37.2294M24.0665 25.3799L47.4533 37.2294" stroke="#062E4B" stroke-width="0.820279" stroke-linecap="round" stroke-linejoin="round"/>
<path d="M168.133 23.5184H152.585V1.31128H157.03V19.0739H168.133V23.5184Z" fill="#062E4B"/>
<path d="M128.728 7.97031C128.728 7.05147 128.903 6.18941 129.254 5.38413C129.605 4.57885 130.08 3.87681 130.679 3.27802C131.288 2.6689 131.995 2.18883 132.801 1.83781C133.606 1.48679 134.468 1.31128 135.387 1.31128H145.577V5.7558H135.387C135.077 5.7558 134.788 5.81258 134.519 5.92614C134.251 6.03971 134.014 6.19973 133.807 6.40621C133.611 6.60237 133.456 6.83466 133.343 7.10309C133.229 7.37152 133.172 7.66059 133.172 7.97031C133.172 8.28004 133.229 8.57427 133.343 8.85302C133.456 9.12145 133.611 9.3589 133.807 9.56538C134.014 9.76154 134.251 9.9164 134.519 10.03C134.788 10.1435 135.077 10.2003 135.387 10.2003H139.831C140.75 10.2003 141.612 10.3758 142.417 10.7268C143.233 11.0675 143.94 11.5424 144.539 12.1516C145.148 12.7504 145.623 13.4576 145.964 14.2732C146.315 15.0784 146.49 15.9405 146.49 16.8593C146.49 17.7782 146.315 18.6403 145.964 19.4455C145.623 20.2508 145.148 20.958 144.539 21.5671C143.94 22.1659 143.233 22.6408 142.417 22.9919C141.612 23.3429 140.75 23.5184 139.831 23.5184H129.967V19.0739H139.831C140.141 19.0739 140.43 19.0171 140.698 18.9035C140.967 18.79 141.199 18.6351 141.395 18.4389C141.602 18.2325 141.762 17.995 141.875 17.7266C141.989 17.4581 142.046 17.1691 142.046 16.8593C142.046 16.5496 141.989 16.2606 141.875 15.9921C141.762 15.7237 141.602 15.4914 141.395 15.2952C141.199 15.0888 140.967 14.9287 140.698 14.8152C140.43 14.7016 140.141 14.6448 139.831 14.6448H135.387C134.468 14.6448 133.606 14.4693 132.801 14.1183C131.995 13.7673 131.288 13.2924 130.679 12.6936C130.08 12.0845 129.605 11.3773 129.254 10.572C128.903 9.75638 128.728 8.88916 128.728 7.97031Z" fill="#062E4B"/>
<path d="M118.553 14.6448V10.2003C118.553 9.59119 118.435 9.01821 118.197 8.48136C117.97 7.93418 117.655 7.45927 117.253 7.05663C116.85 6.65399 116.375 6.33911 115.828 6.11198C115.291 5.87452 114.718 5.7558 114.109 5.7558C113.5 5.7558 112.922 5.87452 112.374 6.11198C111.838 6.33911 111.368 6.65399 110.965 7.05663C110.563 7.45927 110.243 7.93418 110.005 8.48136C109.778 9.01821 109.664 9.59119 109.664 10.2003V14.6448H118.553ZM122.998 23.5184H118.553V19.0739H109.664V23.5184H105.235V10.2003C105.235 8.97175 105.468 7.82061 105.932 6.74691C106.397 5.66288 107.027 4.71823 107.822 3.91295C108.627 3.10767 109.566 2.47274 110.64 2.00815C111.724 1.54357 112.88 1.31128 114.109 1.31128C115.337 1.31128 116.489 1.54357 117.562 2.00815C118.646 2.47274 119.591 3.10767 120.396 3.91295C121.202 4.71823 121.836 5.66288 122.301 6.74691C122.766 7.82061 122.998 8.97175 122.998 10.2003V23.5184Z" fill="#062E4B"/>
<path d="M99.7265 21.2418C98.6941 22.1297 97.5378 22.8111 96.2576 23.286C94.9774 23.7609 93.6507 23.9984 92.2776 23.9984C91.2246 23.9984 90.2077 23.859 89.2269 23.5802C88.2564 23.3118 87.3427 22.9298 86.4858 22.4343C85.6392 21.9284 84.8649 21.3244 84.1629 20.6224C83.4609 19.9203 82.8569 19.146 82.351 18.2995C81.8555 17.4426 81.4683 16.5289 81.1896 15.5584C80.9211 14.5776 80.7869 13.5607 80.7869 12.5077C80.7869 11.4546 80.9211 10.4377 81.1896 9.45689C81.4683 8.4761 81.8555 7.56242 82.351 6.71584C82.8569 5.85895 83.4609 5.07948 84.1629 4.37744C84.8649 3.6754 85.6392 3.07661 86.4858 2.58105C87.3427 2.07517 88.2564 1.68802 89.2269 1.41959C90.2077 1.14084 91.2246 1.00146 92.2776 1.00146C93.6507 1.00146 94.9774 1.23892 96.2576 1.71383C97.5378 2.17841 98.6941 2.8598 99.7265 3.75799L97.3726 7.62953C96.7221 6.92749 95.953 6.39064 95.0651 6.01897C94.1773 5.63698 93.2481 5.44598 92.2776 5.44598C91.2968 5.44598 90.378 5.63182 89.5211 6.00348C88.6642 6.37515 87.9157 6.88103 87.2756 7.52112C86.6355 8.15089 86.1296 8.89939 85.758 9.76661C85.3863 10.6235 85.2005 11.5372 85.2005 12.5077C85.2005 13.4781 85.3863 14.3918 85.758 15.2487C86.1296 16.0953 86.6355 16.8386 87.2756 17.4787C87.9157 18.1188 88.6642 18.6247 89.5211 18.9963C90.378 19.368 91.2968 19.5538 92.2776 19.5538C93.2481 19.5538 94.1773 19.368 95.0651 18.9963C95.953 18.6143 96.7221 18.0723 97.3726 17.3703L99.7265 21.2418Z" fill="#062E4B"/>
<path d="M58.1334 7.97031C58.1334 7.05147 58.3089 6.18941 58.6599 5.38413C59.0109 4.57885 59.4858 3.87681 60.0846 3.27802C60.6937 2.6689 61.4009 2.18883 62.2062 1.83781C63.0115 1.48679 63.8736 1.31128 64.7924 1.31128H74.9823V5.7558H64.7924C64.4827 5.7558 64.1936 5.81258 63.9252 5.92614C63.6567 6.03971 63.4193 6.19973 63.2128 6.40621C63.0167 6.60237 62.8618 6.83466 62.7482 7.10309C62.6347 7.37152 62.5779 7.66059 62.5779 7.97031C62.5779 8.28004 62.6347 8.57427 62.7482 8.85302C62.8618 9.12145 63.0167 9.3589 63.2128 9.56538C63.4193 9.76154 63.6567 9.9164 63.9252 10.03C64.1936 10.1435 64.4827 10.2003 64.7924 10.2003H69.2369C70.1558 10.2003 71.0178 10.3758 71.8231 10.7268C72.6387 11.0675 73.3459 11.5424 73.9447 12.1516C74.5538 12.7504 75.0287 13.4576 75.3694 14.2732C75.7204 15.0784 75.8959 15.9405 75.8959 16.8593C75.8959 17.7782 75.7204 18.6403 75.3694 19.4455C75.0287 20.2508 74.5538 20.958 73.9447 21.5671C73.3459 22.1659 72.6387 22.6408 71.8231 22.9919C71.0178 23.3429 70.1558 23.5184 69.2369 23.5184H59.3723V19.0739H69.2369C69.5466 19.0739 69.8357 19.0171 70.1041 18.9035C70.3726 18.79 70.6049 18.6351 70.801 18.4389C71.0075 18.2325 71.1675 17.995 71.2811 17.7266C71.3946 17.4581 71.4514 17.1691 71.4514 16.8593C71.4514 16.5496 71.3946 16.2606 71.2811 15.9921C71.1675 15.7237 71.0075 15.4914 70.801 15.2952C70.6049 15.0888 70.3726 14.9287 70.1041 14.8152C69.8357 14.7016 69.5466 14.6448 69.2369 14.6448H64.7924C63.8736 14.6448 63.0115 14.4693 62.2062 14.1183C61.4009 13.7673 60.6937 13.2924 60.0846 12.6936C59.4858 12.0845 59.0109 11.3773 58.6599 10.572C58.3089 9.75638 58.1334 8.88916 58.1334 7.97031Z" fill="#062E4B"/>
<path d="M61.8134 36.2283C62.11 36.2283 62.375 36.1783 62.6084 36.0783C62.8417 35.9783 63.0384 35.8383 63.1984 35.6583C63.3617 35.4783 63.485 35.2633 63.5684 35.0133C63.655 34.7633 63.6984 34.4883 63.6984 34.1883V29.8333H64.6634V34.1883C64.6634 34.6016 64.5967 34.985 64.4634 35.3383C64.3334 35.6916 64.145 35.9983 63.8984 36.2583C63.655 36.515 63.3567 36.7166 63.0034 36.8633C62.65 37.01 62.2534 37.0833 61.8134 37.0833C61.3734 37.0833 60.9767 37.01 60.6234 36.8633C60.27 36.7166 59.97 36.515 59.7234 36.2583C59.4767 35.9983 59.2867 35.6916 59.1534 35.3383C59.0234 34.985 58.9584 34.6016 58.9584 34.1883V29.8333H59.9234V34.1833C59.9234 34.4833 59.965 34.7583 60.0484 35.0083C60.135 35.2583 60.2584 35.4733 60.4184 35.6533C60.5817 35.8333 60.78 35.975 61.0134 36.0783C61.25 36.1783 61.5167 36.2283 61.8134 36.2283ZM67.0854 32.6683C67.1954 32.545 67.3121 32.4333 67.4354 32.3333C67.5587 32.2333 67.6887 32.1483 67.8254 32.0783C67.9654 32.005 68.1121 31.95 68.2654 31.9133C68.4221 31.8733 68.5904 31.8533 68.7704 31.8533C69.0471 31.8533 69.2904 31.9 69.5004 31.9933C69.7137 32.0833 69.8904 32.2133 70.0304 32.3833C70.1737 32.55 70.2821 32.7516 70.3554 32.9883C70.4287 33.225 70.4654 33.4866 70.4654 33.7733V36.9983H69.5704V33.7733C69.5704 33.39 69.4821 33.0933 69.3054 32.8833C69.1321 32.67 68.8671 32.5633 68.5104 32.5633C68.2471 32.5633 68.0004 32.6266 67.7704 32.7533C67.5437 32.88 67.3337 33.0516 67.1404 33.2683V36.9983H66.2454V31.9333H66.7804C66.9071 31.9333 66.9854 31.995 67.0154 32.1183L67.0854 32.6683ZM75.3216 33.1383C75.1549 32.915 74.9749 32.76 74.7816 32.6733C74.5882 32.5833 74.3716 32.5383 74.1316 32.5383C73.6616 32.5383 73.2999 32.7066 73.0466 33.0433C72.7932 33.38 72.6666 33.86 72.6666 34.4833C72.6666 34.8133 72.6949 35.0966 72.7516 35.3333C72.8082 35.5666 72.8916 35.76 73.0016 35.9133C73.1116 36.0633 73.2466 36.1733 73.4066 36.2433C73.5666 36.3133 73.7482 36.3483 73.9516 36.3483C74.2449 36.3483 74.4999 36.2816 74.7166 36.1483C74.9366 36.015 75.1382 35.8266 75.3216 35.5833V33.1383ZM76.2116 29.6333V36.9983H75.6816C75.5549 36.9983 75.4749 36.9366 75.4416 36.8133L75.3616 36.1983C75.1449 36.4583 74.8982 36.6683 74.6216 36.8283C74.3449 36.9883 74.0249 37.0683 73.6616 37.0683C73.3716 37.0683 73.1082 37.0133 72.8716 36.9033C72.6349 36.79 72.4332 36.625 72.2666 36.4083C72.0999 36.1916 71.9716 35.9216 71.8816 35.5983C71.7916 35.275 71.7466 34.9033 71.7466 34.4833C71.7466 34.11 71.7966 33.7633 71.8966 33.4433C71.9966 33.12 72.1399 32.84 72.3266 32.6033C72.5132 32.3666 72.7416 32.1816 73.0116 32.0483C73.2849 31.9116 73.5916 31.8433 73.9316 31.8433C74.2416 31.8433 74.5066 31.8966 74.7266 32.0033C74.9499 32.1066 75.1482 32.2516 75.3216 32.4383V29.6333H76.2116ZM81.2073 33.9133C81.2073 33.7066 81.1773 33.5183 81.1173 33.3483C81.0606 33.175 80.9756 33.0266 80.8623 32.9033C80.7523 32.7766 80.6173 32.68 80.4573 32.6133C80.2973 32.5433 80.1156 32.5083 79.9123 32.5083C79.4856 32.5083 79.1473 32.6333 78.8973 32.8833C78.6506 33.13 78.4973 33.4733 78.4373 33.9133H81.2073ZM81.9273 36.2883C81.8173 36.4216 81.6856 36.5383 81.5323 36.6383C81.3789 36.735 81.2139 36.815 81.0373 36.8783C80.8639 36.9416 80.6839 36.9883 80.4973 37.0183C80.3106 37.0516 80.1256 37.0683 79.9423 37.0683C79.5923 37.0683 79.2689 37.01 78.9723 36.8933C78.6789 36.7733 78.4239 36.6 78.2073 36.3733C77.9939 36.1433 77.8273 35.86 77.7073 35.5233C77.5873 35.1866 77.5273 34.8 77.5273 34.3633C77.5273 34.01 77.5806 33.68 77.6873 33.3733C77.7973 33.0666 77.9539 32.8016 78.1573 32.5783C78.3606 32.3516 78.6089 32.175 78.9023 32.0483C79.1956 31.9183 79.5256 31.8533 79.8923 31.8533C80.1956 31.8533 80.4756 31.905 80.7323 32.0083C80.9923 32.1083 81.2156 32.255 81.4023 32.4483C81.5923 32.6383 81.7406 32.875 81.8473 33.1583C81.9539 33.4383 82.0073 33.7583 82.0073 34.1183C82.0073 34.2583 81.9923 34.3516 81.9623 34.3983C81.9323 34.445 81.8756 34.4683 81.7923 34.4683H78.4073C78.4173 34.7883 78.4606 35.0666 78.5373 35.3033C78.6173 35.54 78.7273 35.7383 78.8673 35.8983C79.0073 36.055 79.1739 36.1733 79.3673 36.2533C79.5606 36.33 79.7773 36.3683 80.0173 36.3683C80.2406 36.3683 80.4323 36.3433 80.5923 36.2933C80.7556 36.24 80.8956 36.1833 81.0123 36.1233C81.1289 36.0633 81.2256 36.0083 81.3023 35.9583C81.3823 35.905 81.4506 35.8783 81.5073 35.8783C81.5806 35.8783 81.6373 35.9066 81.6773 35.9633L81.9273 36.2883ZM84.1455 32.9483C84.3055 32.6016 84.5021 32.3316 84.7355 32.1383C84.9688 31.9416 85.2538 31.8433 85.5905 31.8433C85.6971 31.8433 85.7988 31.855 85.8955 31.8783C85.9955 31.9016 86.0838 31.9383 86.1605 31.9883L86.0955 32.6533C86.0755 32.7366 86.0255 32.7783 85.9455 32.7783C85.8988 32.7783 85.8305 32.7683 85.7405 32.7483C85.6505 32.7283 85.5488 32.7183 85.4355 32.7183C85.2755 32.7183 85.1321 32.7416 85.0055 32.7883C84.8821 32.835 84.7705 32.905 84.6705 32.9983C84.5738 33.0883 84.4855 33.2016 84.4055 33.3383C84.3288 33.4716 84.2588 33.625 84.1955 33.7983V36.9983H83.3005V31.9333H83.8105C83.9071 31.9333 83.9738 31.9516 84.0105 31.9883C84.0471 32.025 84.0721 32.0883 84.0855 32.1783L84.1455 32.9483ZM90.0638 32.7683C90.0238 32.8416 89.9621 32.8783 89.8788 32.8783C89.8288 32.8783 89.7721 32.86 89.7088 32.8233C89.6454 32.7866 89.5671 32.7466 89.4738 32.7033C89.3838 32.6566 89.2754 32.615 89.1488 32.5783C89.0221 32.5383 88.8721 32.5183 88.6988 32.5183C88.5488 32.5183 88.4138 32.5383 88.2938 32.5783C88.1738 32.615 88.0704 32.6666 87.9838 32.7333C87.9004 32.8 87.8354 32.8783 87.7888 32.9683C87.7454 33.055 87.7238 33.15 87.7238 33.2533C87.7238 33.3833 87.7604 33.4916 87.8338 33.5783C87.9104 33.665 88.0104 33.74 88.1338 33.8033C88.2571 33.8666 88.3971 33.9233 88.5538 33.9733C88.7104 34.02 88.8704 34.0716 89.0338 34.1283C89.2004 34.1816 89.3621 34.2416 89.5188 34.3083C89.6754 34.375 89.8154 34.4583 89.9388 34.5583C90.0621 34.6583 90.1604 34.7816 90.2338 34.9283C90.3104 35.0716 90.3488 35.245 90.3488 35.4483C90.3488 35.6816 90.3071 35.8983 90.2238 36.0983C90.1404 36.295 90.0171 36.4666 89.8538 36.6133C89.6904 36.7566 89.4904 36.87 89.2538 36.9533C89.0171 37.0366 88.7438 37.0783 88.4338 37.0783C88.0804 37.0783 87.7604 37.0216 87.4738 36.9083C87.1871 36.7916 86.9438 36.6433 86.7438 36.4633L86.9538 36.1233C86.9804 36.08 87.0121 36.0466 87.0488 36.0233C87.0854 36 87.1321 35.9883 87.1888 35.9883C87.2488 35.9883 87.3121 36.0116 87.3788 36.0583C87.4454 36.105 87.5254 36.1566 87.6188 36.2133C87.7154 36.27 87.8321 36.3216 87.9688 36.3683C88.1054 36.415 88.2754 36.4383 88.4788 36.4383C88.6521 36.4383 88.8038 36.4166 88.9338 36.3733C89.0638 36.3266 89.1721 36.265 89.2588 36.1883C89.3454 36.1116 89.4088 36.0233 89.4488 35.9233C89.4921 35.8233 89.5138 35.7166 89.5138 35.6033C89.5138 35.4633 89.4754 35.3483 89.3988 35.2583C89.3254 35.165 89.2271 35.0866 89.1038 35.0233C88.9804 34.9566 88.8388 34.9 88.6788 34.8533C88.5221 34.8033 88.3604 34.7516 88.1938 34.6983C88.0304 34.645 87.8688 34.585 87.7088 34.5183C87.5521 34.4483 87.4121 34.3616 87.2888 34.2583C87.1654 34.155 87.0654 34.0283 86.9888 33.8783C86.9154 33.725 86.8788 33.54 86.8788 33.3233C86.8788 33.13 86.9188 32.945 86.9988 32.7683C87.0788 32.5883 87.1954 32.4316 87.3488 32.2983C87.5021 32.1616 87.6904 32.0533 87.9138 31.9733C88.1371 31.8933 88.3921 31.8533 88.6788 31.8533C89.0121 31.8533 89.3104 31.9066 89.5738 32.0133C89.8404 32.1166 90.0704 32.26 90.2638 32.4433L90.0638 32.7683ZM93.1949 37.0783C92.7949 37.0783 92.4866 36.9666 92.2699 36.7433C92.0566 36.52 91.9499 36.1983 91.9499 35.7783V32.6783H91.3399C91.2866 32.6783 91.2416 32.6633 91.2049 32.6333C91.1683 32.6 91.1499 32.55 91.1499 32.4833V32.1283L91.9799 32.0233L92.1849 30.4583C92.1949 30.4083 92.2166 30.3683 92.2499 30.3383C92.2866 30.305 92.3333 30.2883 92.3899 30.2883H92.8399V32.0333H94.3049V32.6783H92.8399V35.7183C92.8399 35.9316 92.8916 36.09 92.9949 36.1933C93.0983 36.2966 93.2316 36.3483 93.3949 36.3483C93.4883 36.3483 93.5683 36.3366 93.6349 36.3133C93.7049 36.2866 93.7649 36.2583 93.8149 36.2283C93.8649 36.1983 93.9066 36.1716 93.9399 36.1483C93.9766 36.1216 94.0083 36.1083 94.0349 36.1083C94.0816 36.1083 94.1233 36.1366 94.1599 36.1933L94.4199 36.6183C94.2666 36.7616 94.0816 36.875 93.8649 36.9583C93.6483 37.0383 93.4249 37.0783 93.1949 37.0783ZM98.1689 34.7183C97.7589 34.7316 97.4089 34.765 97.1189 34.8183C96.8322 34.8683 96.5972 34.935 96.4139 35.0183C96.2339 35.1016 96.1022 35.2 96.0189 35.3133C95.9389 35.4266 95.8989 35.5533 95.8989 35.6933C95.8989 35.8266 95.9206 35.9416 95.9639 36.0383C96.0072 36.135 96.0656 36.215 96.1389 36.2783C96.2156 36.3383 96.3039 36.3833 96.4039 36.4133C96.5072 36.44 96.6172 36.4533 96.7339 36.4533C96.8906 36.4533 97.0339 36.4383 97.1639 36.4083C97.2939 36.375 97.4156 36.3283 97.5289 36.2683C97.6456 36.2083 97.7556 36.1366 97.8589 36.0533C97.9656 35.97 98.0689 35.875 98.1689 35.7683V34.7183ZM95.2939 32.6483C95.5739 32.3783 95.8756 32.1766 96.1989 32.0433C96.5222 31.91 96.8806 31.8433 97.2739 31.8433C97.5572 31.8433 97.8089 31.89 98.0289 31.9833C98.2489 32.0766 98.4339 32.2066 98.5839 32.3733C98.7339 32.54 98.8472 32.7416 98.9239 32.9783C99.0006 33.215 99.0389 33.475 99.0389 33.7583V36.9983H98.6439C98.5572 36.9983 98.4906 36.985 98.4439 36.9583C98.3972 36.9283 98.3606 36.8716 98.3339 36.7883L98.2339 36.3083C98.1006 36.4316 97.9706 36.5416 97.8439 36.6383C97.7172 36.7316 97.5839 36.8116 97.4439 36.8783C97.3039 36.9416 97.1539 36.99 96.9939 37.0233C96.8372 37.06 96.6622 37.0783 96.4689 37.0783C96.2722 37.0783 96.0872 37.0516 95.9139 36.9983C95.7406 36.9416 95.5889 36.8583 95.4589 36.7483C95.3322 36.6383 95.2306 36.5 95.1539 36.3333C95.0806 36.1633 95.0439 35.9633 95.0439 35.7333C95.0439 35.5333 95.0989 35.3416 95.2089 35.1583C95.3189 34.9716 95.4972 34.8066 95.7439 34.6633C95.9906 34.52 96.3122 34.4033 96.7089 34.3133C97.1056 34.22 97.5922 34.1666 98.1689 34.1533V33.7583C98.1689 33.365 98.0839 33.0683 97.9139 32.8683C97.7439 32.665 97.4956 32.5633 97.1689 32.5633C96.9489 32.5633 96.7639 32.5916 96.6139 32.6483C96.4672 32.7016 96.3389 32.7633 96.2289 32.8333C96.1222 32.9 96.0289 32.9616 95.9489 33.0183C95.8722 33.0716 95.7956 33.0983 95.7189 33.0983C95.6589 33.0983 95.6072 33.0833 95.5639 33.0533C95.5206 33.02 95.4839 32.98 95.4539 32.9333L95.2939 32.6483ZM101.435 32.6683C101.545 32.545 101.661 32.4333 101.785 32.3333C101.908 32.2333 102.038 32.1483 102.175 32.0783C102.315 32.005 102.461 31.95 102.615 31.9133C102.771 31.8733 102.94 31.8533 103.12 31.8533C103.396 31.8533 103.64 31.9 103.85 31.9933C104.063 32.0833 104.24 32.2133 104.38 32.3833C104.523 32.55 104.631 32.7516 104.705 32.9883C104.778 33.225 104.815 33.4866 104.815 33.7733V36.9983H103.92V33.7733C103.92 33.39 103.831 33.0933 103.655 32.8833C103.481 32.67 103.216 32.5633 102.86 32.5633C102.596 32.5633 102.35 32.6266 102.12 32.7533C101.893 32.88 101.683 33.0516 101.49 33.2683V36.9983H100.595V31.9333H101.13C101.256 31.9333 101.335 31.995 101.365 32.1183L101.435 32.6683ZM109.671 33.1383C109.504 32.915 109.324 32.76 109.131 32.6733C108.937 32.5833 108.721 32.5383 108.481 32.5383C108.011 32.5383 107.649 32.7066 107.396 33.0433C107.142 33.38 107.016 33.86 107.016 34.4833C107.016 34.8133 107.044 35.0966 107.101 35.3333C107.157 35.5666 107.241 35.76 107.351 35.9133C107.461 36.0633 107.596 36.1733 107.756 36.2433C107.916 36.3133 108.097 36.3483 108.301 36.3483C108.594 36.3483 108.849 36.2816 109.066 36.1483C109.286 36.015 109.487 35.8266 109.671 35.5833V33.1383ZM110.561 29.6333V36.9983H110.031C109.904 36.9983 109.824 36.9366 109.791 36.8133L109.711 36.1983C109.494 36.4583 109.247 36.6683 108.971 36.8283C108.694 36.9883 108.374 37.0683 108.011 37.0683C107.721 37.0683 107.457 37.0133 107.221 36.9033C106.984 36.79 106.782 36.625 106.616 36.4083C106.449 36.1916 106.321 35.9216 106.231 35.5983C106.141 35.275 106.096 34.9033 106.096 34.4833C106.096 34.11 106.146 33.7633 106.246 33.4433C106.346 33.12 106.489 32.84 106.676 32.6033C106.862 32.3666 107.091 32.1816 107.361 32.0483C107.634 31.9116 107.941 31.8433 108.281 31.8433C108.591 31.8433 108.856 31.8966 109.076 32.0033C109.299 32.1066 109.497 32.2516 109.671 32.4383V29.6333H110.561ZM117.65 36.2283C117.927 36.2283 118.165 36.1966 118.365 36.1333C118.565 36.07 118.728 35.9816 118.855 35.8683C118.985 35.7516 119.08 35.615 119.14 35.4583C119.2 35.2983 119.23 35.1233 119.23 34.9333C119.23 34.5633 119.098 34.2716 118.835 34.0583C118.572 33.8416 118.177 33.7333 117.65 33.7333H116.1V36.2283H117.65ZM116.1 30.5983V33.0433H117.38C117.653 33.0433 117.89 33.0133 118.09 32.9533C118.293 32.8933 118.46 32.81 118.59 32.7033C118.723 32.5966 118.822 32.4683 118.885 32.3183C118.948 32.165 118.98 31.9983 118.98 31.8183C118.98 31.395 118.853 31.0866 118.6 30.8933C118.347 30.6966 117.953 30.5983 117.42 30.5983H116.1ZM117.42 29.8333C117.86 29.8333 118.238 29.8766 118.555 29.9633C118.875 30.05 119.137 30.1733 119.34 30.3333C119.547 30.4933 119.698 30.69 119.795 30.9233C119.892 31.1533 119.94 31.4133 119.94 31.7033C119.94 31.88 119.912 32.05 119.855 32.2133C119.802 32.3733 119.72 32.5233 119.61 32.6633C119.5 32.8033 119.36 32.93 119.19 33.0433C119.023 33.1533 118.827 33.2433 118.6 33.3133C119.127 33.4133 119.522 33.6016 119.785 33.8783C120.052 34.1516 120.185 34.5116 120.185 34.9583C120.185 35.2616 120.128 35.5383 120.015 35.7883C119.905 36.0383 119.742 36.2533 119.525 36.4333C119.312 36.6133 119.048 36.7533 118.735 36.8533C118.422 36.95 118.065 36.9983 117.665 36.9983H115.135V29.8333H117.42ZM125.648 31.9333V36.9983H125.118C124.991 36.9983 124.911 36.9366 124.878 36.8133L124.808 36.2683C124.588 36.5116 124.341 36.7083 124.068 36.8583C123.794 37.005 123.481 37.0783 123.128 37.0783C122.851 37.0783 122.606 37.0333 122.393 36.9433C122.183 36.85 122.006 36.72 121.863 36.5533C121.719 36.3866 121.611 36.185 121.538 35.9483C121.468 35.7116 121.433 35.45 121.433 35.1633V31.9333H122.323V35.1633C122.323 35.5466 122.409 35.8433 122.583 36.0533C122.759 36.2633 123.028 36.3683 123.388 36.3683C123.651 36.3683 123.896 36.3066 124.123 36.1833C124.353 36.0566 124.564 35.8833 124.758 35.6633V31.9333H125.648ZM130.209 32.7683C130.169 32.8416 130.107 32.8783 130.024 32.8783C129.974 32.8783 129.917 32.86 129.854 32.8233C129.79 32.7866 129.712 32.7466 129.619 32.7033C129.529 32.6566 129.42 32.615 129.294 32.5783C129.167 32.5383 129.017 32.5183 128.844 32.5183C128.694 32.5183 128.559 32.5383 128.439 32.5783C128.319 32.615 128.215 32.6666 128.129 32.7333C128.045 32.8 127.98 32.8783 127.934 32.9683C127.89 33.055 127.869 33.15 127.869 33.2533C127.869 33.3833 127.905 33.4916 127.979 33.5783C128.055 33.665 128.155 33.74 128.279 33.8033C128.402 33.8666 128.542 33.9233 128.699 33.9733C128.855 34.02 129.015 34.0716 129.179 34.1283C129.345 34.1816 129.507 34.2416 129.664 34.3083C129.82 34.375 129.96 34.4583 130.084 34.5583C130.207 34.6583 130.305 34.7816 130.379 34.9283C130.455 35.0716 130.494 35.245 130.494 35.4483C130.494 35.6816 130.452 35.8983 130.369 36.0983C130.285 36.295 130.162 36.4666 129.999 36.6133C129.835 36.7566 129.635 36.87 129.399 36.9533C129.162 37.0366 128.889 37.0783 128.579 37.0783C128.225 37.0783 127.905 37.0216 127.619 36.9083C127.332 36.7916 127.089 36.6433 126.889 36.4633L127.099 36.1233C127.125 36.08 127.157 36.0466 127.194 36.0233C127.23 36 127.277 35.9883 127.334 35.9883C127.394 35.9883 127.457 36.0116 127.524 36.0583C127.59 36.105 127.67 36.1566 127.764 36.2133C127.86 36.27 127.977 36.3216 128.114 36.3683C128.25 36.415 128.42 36.4383 128.624 36.4383C128.797 36.4383 128.949 36.4166 129.079 36.3733C129.209 36.3266 129.317 36.265 129.404 36.1883C129.49 36.1116 129.554 36.0233 129.594 35.9233C129.637 35.8233 129.659 35.7166 129.659 35.6033C129.659 35.4633 129.62 35.3483 129.544 35.2583C129.47 35.165 129.372 35.0866 129.249 35.0233C129.125 34.9566 128.984 34.9 128.824 34.8533C128.667 34.8033 128.505 34.7516 128.339 34.6983C128.175 34.645 128.014 34.585 127.854 34.5183C127.697 34.4483 127.557 34.3616 127.434 34.2583C127.31 34.155 127.21 34.0283 127.134 33.8783C127.06 33.725 127.024 33.54 127.024 33.3233C127.024 33.13 127.064 32.945 127.144 32.7683C127.224 32.5883 127.34 32.4316 127.494 32.2983C127.647 32.1616 127.835 32.0533 128.059 31.9733C128.282 31.8933 128.537 31.8533 128.824 31.8533C129.157 31.8533 129.455 31.9066 129.719 32.0133C129.985 32.1166 130.215 32.26 130.409 32.4433L130.209 32.7683ZM132.725 31.9333V36.9983H131.835V31.9333H132.725ZM132.915 30.3433C132.915 30.43 132.897 30.5116 132.86 30.5883C132.827 30.6616 132.78 30.7283 132.72 30.7883C132.663 30.845 132.595 30.89 132.515 30.9233C132.438 30.9566 132.357 30.9733 132.27 30.9733C132.183 30.9733 132.102 30.9566 132.025 30.9233C131.952 30.89 131.887 30.845 131.83 30.7883C131.773 30.7283 131.728 30.6616 131.695 30.5883C131.662 30.5116 131.645 30.43 131.645 30.3433C131.645 30.2566 131.662 30.175 131.695 30.0983C131.728 30.0183 131.773 29.95 131.83 29.8933C131.887 29.8333 131.952 29.7866 132.025 29.7533C132.102 29.72 132.183 29.7033 132.27 29.7033C132.357 29.7033 132.438 29.72 132.515 29.7533C132.595 29.7866 132.663 29.8333 132.72 29.8933C132.78 29.95 132.827 30.0183 132.86 30.0983C132.897 30.175 132.915 30.2566 132.915 30.3433ZM135.227 32.6683C135.337 32.545 135.454 32.4333 135.577 32.3333C135.701 32.2333 135.831 32.1483 135.967 32.0783C136.107 32.005 136.254 31.95 136.407 31.9133C136.564 31.8733 136.732 31.8533 136.912 31.8533C137.189 31.8533 137.432 31.9 137.642 31.9933C137.856 32.0833 138.032 32.2133 138.172 32.3833C138.316 32.55 138.424 32.7516 138.497 32.9883C138.571 33.225 138.607 33.4866 138.607 33.7733V36.9983H137.712V33.7733C137.712 33.39 137.624 33.0933 137.447 32.8833C137.274 32.67 137.009 32.5633 136.652 32.5633C136.389 32.5633 136.142 32.6266 135.912 32.7533C135.686 32.88 135.476 33.0516 135.282 33.2683V36.9983H134.387V31.9333H134.922C135.049 31.9333 135.127 31.995 135.157 32.1183L135.227 32.6683ZM143.553 33.9133C143.553 33.7066 143.523 33.5183 143.463 33.3483C143.407 33.175 143.322 33.0266 143.208 32.9033C143.098 32.7766 142.963 32.68 142.803 32.6133C142.643 32.5433 142.462 32.5083 142.258 32.5083C141.832 32.5083 141.493 32.6333 141.243 32.8833C140.997 33.13 140.843 33.4733 140.783 33.9133H143.553ZM144.273 36.2883C144.163 36.4216 144.032 36.5383 143.878 36.6383C143.725 36.735 143.56 36.815 143.383 36.8783C143.21 36.9416 143.03 36.9883 142.843 37.0183C142.657 37.0516 142.472 37.0683 142.288 37.0683C141.938 37.0683 141.615 37.01 141.318 36.8933C141.025 36.7733 140.77 36.6 140.553 36.3733C140.34 36.1433 140.173 35.86 140.053 35.5233C139.933 35.1866 139.873 34.8 139.873 34.3633C139.873 34.01 139.927 33.68 140.033 33.3733C140.143 33.0666 140.3 32.8016 140.503 32.5783C140.707 32.3516 140.955 32.175 141.248 32.0483C141.542 31.9183 141.872 31.8533 142.238 31.8533C142.542 31.8533 142.822 31.905 143.078 32.0083C143.338 32.1083 143.562 32.255 143.748 32.4483C143.938 32.6383 144.087 32.875 144.193 33.1583C144.3 33.4383 144.353 33.7583 144.353 34.1183C144.353 34.2583 144.338 34.3516 144.308 34.3983C144.278 34.445 144.222 34.4683 144.138 34.4683H140.753C140.763 34.7883 140.807 35.0666 140.883 35.3033C140.963 35.54 141.073 35.7383 141.213 35.8983C141.353 36.055 141.52 36.1733 141.713 36.2533C141.907 36.33 142.123 36.3683 142.363 36.3683C142.587 36.3683 142.778 36.3433 142.938 36.2933C143.102 36.24 143.242 36.1833 143.358 36.1233C143.475 36.0633 143.572 36.0083 143.648 35.9583C143.728 35.905 143.797 35.8783 143.853 35.8783C143.927 35.8783 143.983 35.9066 144.023 35.9633L144.273 36.2883ZM148.597 32.7683C148.557 32.8416 148.495 32.8783 148.412 32.8783C148.362 32.8783 148.305 32.86 148.242 32.8233C148.178 32.7866 148.1 32.7466 148.007 32.7033C147.917 32.6566 147.808 32.615 147.682 32.5783C147.555 32.5383 147.405 32.5183 147.232 32.5183C147.082 32.5183 146.947 32.5383 146.827 32.5783C146.707 32.615 146.603 32.6666 146.517 32.7333C146.433 32.8 146.368 32.8783 146.322 32.9683C146.278 33.055 146.257 33.15 146.257 33.2533C146.257 33.3833 146.293 33.4916 146.367 33.5783C146.443 33.665 146.543 33.74 146.667 33.8033C146.79 33.8666 146.93 33.9233 147.087 33.9733C147.243 34.02 147.403 34.0716 147.567 34.1283C147.733 34.1816 147.895 34.2416 148.052 34.3083C148.208 34.375 148.348 34.4583 148.472 34.5583C148.595 34.6583 148.693 34.7816 148.767 34.9283C148.843 35.0716 148.882 35.245 148.882 35.4483C148.882 35.6816 148.84 35.8983 148.757 36.0983C148.673 36.295 148.55 36.4666 148.387 36.6133C148.223 36.7566 148.023 36.87 147.787 36.9533C147.55 37.0366 147.277 37.0783 146.967 37.0783C146.613 37.0783 146.293 37.0216 146.007 36.9083C145.72 36.7916 145.477 36.6433 145.277 36.4633L145.487 36.1233C145.513 36.08 145.545 36.0466 145.582 36.0233C145.618 36 145.665 35.9883 145.722 35.9883C145.782 35.9883 145.845 36.0116 145.912 36.0583C145.978 36.105 146.058 36.1566 146.152 36.2133C146.248 36.27 146.365 36.3216 146.502 36.3683C146.638 36.415 146.808 36.4383 147.012 36.4383C147.185 36.4383 147.337 36.4166 147.467 36.3733C147.597 36.3266 147.705 36.265 147.792 36.1883C147.878 36.1116 147.942 36.0233 147.982 35.9233C148.025 35.8233 148.047 35.7166 148.047 35.6033C148.047 35.4633 148.008 35.3483 147.932 35.2583C147.858 35.165 147.76 35.0866 147.637 35.0233C147.513 34.9566 147.372 34.9 147.212 34.8533C147.055 34.8033 146.893 34.7516 146.727 34.6983C146.563 34.645 146.402 34.585 146.242 34.5183C146.085 34.4483 145.945 34.3616 145.822 34.2583C145.698 34.155 145.598 34.0283 145.522 33.8783C145.448 33.725 145.412 33.54 145.412 33.3233C145.412 33.13 145.452 32.945 145.532 32.7683C145.612 32.5883 145.728 32.4316 145.882 32.2983C146.035 32.1616 146.223 32.0533 146.447 31.9733C146.67 31.8933 146.925 31.8533 147.212 31.8533C147.545 31.8533 147.843 31.9066 148.107 32.0133C148.373 32.1166 148.603 32.26 148.797 32.4433L148.597 32.7683ZM153.123 32.7683C153.083 32.8416 153.021 32.8783 152.938 32.8783C152.888 32.8783 152.831 32.86 152.768 32.8233C152.704 32.7866 152.626 32.7466 152.533 32.7033C152.443 32.6566 152.334 32.615 152.208 32.5783C152.081 32.5383 151.931 32.5183 151.758 32.5183C151.608 32.5183 151.473 32.5383 151.353 32.5783C151.233 32.615 151.129 32.6666 151.043 32.7333C150.959 32.8 150.894 32.8783 150.848 32.9683C150.804 33.055 150.783 33.15 150.783 33.2533C150.783 33.3833 150.819 33.4916 150.893 33.5783C150.969 33.665 151.069 33.74 151.193 33.8033C151.316 33.8666 151.456 33.9233 151.613 33.9733C151.769 34.02 151.929 34.0716 152.093 34.1283C152.259 34.1816 152.421 34.2416 152.578 34.3083C152.734 34.375 152.874 34.4583 152.998 34.5583C153.121 34.6583 153.219 34.7816 153.293 34.9283C153.369 35.0716 153.408 35.245 153.408 35.4483C153.408 35.6816 153.366 35.8983 153.283 36.0983C153.199 36.295 153.076 36.4666 152.913 36.6133C152.749 36.7566 152.549 36.87 152.313 36.9533C152.076 37.0366 151.803 37.0783 151.493 37.0783C151.139 37.0783 150.819 37.0216 150.533 36.9083C150.246 36.7916 150.003 36.6433 149.803 36.4633L150.013 36.1233C150.039 36.08 150.071 36.0466 150.108 36.0233C150.144 36 150.191 35.9883 150.248 35.9883C150.308 35.9883 150.371 36.0116 150.438 36.0583C150.504 36.105 150.584 36.1566 150.678 36.2133C150.774 36.27 150.891 36.3216 151.028 36.3683C151.164 36.415 151.334 36.4383 151.538 36.4383C151.711 36.4383 151.863 36.4166 151.993 36.3733C152.123 36.3266 152.231 36.265 152.318 36.1883C152.404 36.1116 152.468 36.0233 152.508 35.9233C152.551 35.8233 152.573 35.7166 152.573 35.6033C152.573 35.4633 152.534 35.3483 152.458 35.2583C152.384 35.165 152.286 35.0866 152.163 35.0233C152.039 34.9566 151.898 34.9 151.738 34.8533C151.581 34.8033 151.419 34.7516 151.253 34.6983C151.089 34.645 150.928 34.585 150.768 34.5183C150.611 34.4483 150.471 34.3616 150.348 34.2583C150.224 34.155 150.124 34.0283 150.048 33.8783C149.974 33.725 149.938 33.54 149.938 33.3233C149.938 33.13 149.978 32.945 150.058 32.7683C150.138 32.5883 150.254 32.4316 150.408 32.2983C150.561 32.1616 150.749 32.0533 150.973 31.9733C151.196 31.8933 151.451 31.8533 151.738 31.8533C152.071 31.8533 152.369 31.9066 152.633 32.0133C152.899 32.1166 153.129 32.26 153.323 32.4433L153.123 32.7683ZM159.783 33.5483C160.059 33.5483 160.303 33.5116 160.513 33.4383C160.726 33.365 160.904 33.2633 161.048 33.1333C161.194 33 161.304 32.8416 161.378 32.6583C161.451 32.475 161.488 32.2733 161.488 32.0533C161.488 31.5966 161.346 31.24 161.063 30.9833C160.783 30.7266 160.356 30.5983 159.783 30.5983H158.633V33.5483H159.783ZM159.783 29.8333C160.236 29.8333 160.629 29.8866 160.963 29.9933C161.299 30.0966 161.578 30.245 161.798 30.4383C162.018 30.6316 162.181 30.865 162.288 31.1383C162.398 31.4116 162.453 31.7166 162.453 32.0533C162.453 32.3866 162.394 32.6916 162.278 32.9683C162.161 33.245 161.989 33.4833 161.763 33.6833C161.539 33.8833 161.261 34.04 160.928 34.1533C160.598 34.2633 160.216 34.3183 159.783 34.3183H158.633V36.9983H157.668V29.8333H159.783ZM164.554 29.6333V36.9983H163.664V29.6333H164.554ZM168.942 34.7183C168.532 34.7316 168.182 34.765 167.892 34.8183C167.606 34.8683 167.371 34.935 167.187 35.0183C167.007 35.1016 166.876 35.2 166.792 35.3133C166.712 35.4266 166.672 35.5533 166.672 35.6933C166.672 35.8266 166.694 35.9416 166.737 36.0383C166.781 36.135 166.839 36.215 166.912 36.2783C166.989 36.3383 167.077 36.3833 167.177 36.4133C167.281 36.44 167.391 36.4533 167.507 36.4533C167.664 36.4533 167.807 36.4383 167.937 36.4083C168.067 36.375 168.189 36.3283 168.302 36.2683C168.419 36.2083 168.529 36.1366 168.632 36.0533C168.739 35.97 168.842 35.875 168.942 35.7683V34.7183ZM166.067 32.6483C166.347 32.3783 166.649 32.1766 166.972 32.0433C167.296 31.91 167.654 31.8433 168.047 31.8433C168.331 31.8433 168.582 31.89 168.802 31.9833C169.022 32.0766 169.207 32.2066 169.357 32.3733C169.507 32.54 169.621 32.7416 169.697 32.9783C169.774 33.215 169.812 33.475 169.812 33.7583V36.9983H169.417C169.331 36.9983 169.264 36.985 169.217 36.9583C169.171 36.9283 169.134 36.8716 169.107 36.7883L169.007 36.3083C168.874 36.4316 168.744 36.5416 168.617 36.6383C168.491 36.7316 168.357 36.8116 168.217 36.8783C168.077 36.9416 167.927 36.99 167.767 37.0233C167.611 37.06 167.436 37.0783 167.242 37.0783C167.046 37.0783 166.861 37.0516 166.687 36.9983C166.514 36.9416 166.362 36.8583 166.232 36.7483C166.106 36.6383 166.004 36.5 165.927 36.3333C165.854 36.1633 165.817 35.9633 165.817 35.7333C165.817 35.5333 165.872 35.3416 165.982 35.1583C166.092 34.9716 166.271 34.8066 166.517 34.6633C166.764 34.52 167.086 34.4033 167.482 34.3133C167.879 34.22 168.366 34.1666 168.942 34.1533V33.7583C168.942 33.365 168.857 33.0683 168.687 32.8683C168.517 32.665 168.269 32.5633 167.942 32.5633C167.722 32.5633 167.537 32.5916 167.387 32.6483C167.241 32.7016 167.112 32.7633 167.002 32.8333C166.896 32.9 166.802 32.9616 166.722 33.0183C166.646 33.0716 166.569 33.0983 166.492 33.0983C166.432 33.0983 166.381 33.0833 166.337 33.0533C166.294 33.02 166.257 32.98 166.227 32.9333L166.067 32.6483ZM172.208 32.6683C172.318 32.545 172.435 32.4333 172.558 32.3333C172.681 32.2333 172.811 32.1483 172.948 32.0783C173.088 32.005 173.235 31.95 173.388 31.9133C173.545 31.8733 173.713 31.8533 173.893 31.8533C174.17 31.8533 174.413 31.9 174.623 31.9933C174.836 32.0833 175.013 32.2133 175.153 32.3833C175.296 32.55 175.405 32.7516 175.478 32.9883C175.551 33.225 175.588 33.4866 175.588 33.7733V36.9983H174.693V33.7733C174.693 33.39 174.605 33.0933 174.428 32.8833C174.255 32.67 173.99 32.5633 173.633 32.5633C173.37 32.5633 173.123 32.6266 172.893 32.7533C172.666 32.88 172.456 33.0516 172.263 33.2683V36.9983H171.368V31.9333H171.903C172.03 31.9333 172.108 31.995 172.138 32.1183L172.208 32.6683ZM182.648 34.7183C182.238 34.7316 181.888 34.765 181.598 34.8183C181.311 34.8683 181.076 34.935 180.893 35.0183C180.713 35.1016 180.581 35.2 180.498 35.3133C180.418 35.4266 180.378 35.5533 180.378 35.6933C180.378 35.8266 180.399 35.9416 180.443 36.0383C180.486 36.135 180.544 36.215 180.618 36.2783C180.694 36.3383 180.783 36.3833 180.883 36.4133C180.986 36.44 181.096 36.4533 181.213 36.4533C181.369 36.4533 181.513 36.4383 181.643 36.4083C181.773 36.375 181.894 36.3283 182.008 36.2683C182.124 36.2083 182.234 36.1366 182.338 36.0533C182.444 35.97 182.548 35.875 182.648 35.7683V34.7183ZM179.773 32.6483C180.053 32.3783 180.354 32.1766 180.678 32.0433C181.001 31.91 181.359 31.8433 181.753 31.8433C182.036 31.8433 182.288 31.89 182.508 31.9833C182.728 32.0766 182.913 32.2066 183.063 32.3733C183.213 32.54 183.326 32.7416 183.403 32.9783C183.479 33.215 183.518 33.475 183.518 33.7583V36.9983H183.123C183.036 36.9983 182.969 36.985 182.923 36.9583C182.876 36.9283 182.839 36.8716 182.813 36.7883L182.713 36.3083C182.579 36.4316 182.449 36.5416 182.323 36.6383C182.196 36.7316 182.063 36.8116 181.923 36.8783C181.783 36.9416 181.633 36.99 181.473 37.0233C181.316 37.06 181.141 37.0783 180.948 37.0783C180.751 37.0783 180.566 37.0516 180.393 36.9983C180.219 36.9416 180.068 36.8583 179.938 36.7483C179.811 36.6383 179.709 36.5 179.633 36.3333C179.559 36.1633 179.523 35.9633 179.523 35.7333C179.523 35.5333 179.578 35.3416 179.688 35.1583C179.798 34.9716 179.976 34.8066 180.223 34.6633C180.469 34.52 180.791 34.4033 181.188 34.3133C181.584 34.22 182.071 34.1666 182.648 34.1533V33.7583C182.648 33.365 182.563 33.0683 182.393 32.8683C182.223 32.665 181.974 32.5633 181.648 32.5633C181.428 32.5633 181.243 32.5916 181.093 32.6483C180.946 32.7016 180.818 32.7633 180.708 32.8333C180.601 32.9 180.508 32.9616 180.428 33.0183C180.351 33.0716 180.274 33.0983 180.198 33.0983C180.138 33.0983 180.086 33.0833 180.043 33.0533C179.999 33.02 179.963 32.98 179.933 32.9333L179.773 32.6483ZM185.914 32.6683C186.024 32.545 186.14 32.4333 186.264 32.3333C186.387 32.2333 186.517 32.1483 186.654 32.0783C186.794 32.005 186.94 31.95 187.094 31.9133C187.25 31.8733 187.419 31.8533 187.599 31.8533C187.875 31.8533 188.119 31.9 188.329 31.9933C188.542 32.0833 188.719 32.2133 188.859 32.3833C189.002 32.55 189.11 32.7516 189.184 32.9883C189.257 33.225 189.294 33.4866 189.294 33.7733V36.9983H188.399V33.7733C188.399 33.39 188.31 33.0933 188.134 32.8833C187.96 32.67 187.695 32.5633 187.339 32.5633C187.075 32.5633 186.829 32.6266 186.599 32.7533C186.372 32.88 186.162 33.0516 185.969 33.2683V36.9983H185.074V31.9333H185.609C185.735 31.9333 185.814 31.995 185.844 32.1183L185.914 32.6683ZM194.15 33.1383C193.983 32.915 193.803 32.76 193.61 32.6733C193.416 32.5833 193.2 32.5383 192.96 32.5383C192.49 32.5383 192.128 32.7066 191.875 33.0433C191.621 33.38 191.495 33.86 191.495 34.4833C191.495 34.8133 191.523 35.0966 191.58 35.3333C191.636 35.5666 191.72 35.76 191.83 35.9133C191.94 36.0633 192.075 36.1733 192.235 36.2433C192.395 36.3133 192.576 36.3483 192.78 36.3483C193.073 36.3483 193.328 36.2816 193.545 36.1483C193.765 36.015 193.966 35.8266 194.15 35.5833V33.1383ZM195.04 29.6333V36.9983H194.51C194.383 36.9983 194.303 36.9366 194.27 36.8133L194.19 36.1983C193.973 36.4583 193.726 36.6683 193.45 36.8283C193.173 36.9883 192.853 37.0683 192.49 37.0683C192.2 37.0683 191.936 37.0133 191.7 36.9033C191.463 36.79 191.261 36.625 191.095 36.4083C190.928 36.1916 190.8 35.9216 190.71 35.5983C190.62 35.275 190.575 34.9033 190.575 34.4833C190.575 34.11 190.625 33.7633 190.725 33.4433C190.825 33.12 190.968 32.84 191.155 32.6033C191.341 32.3666 191.57 32.1816 191.84 32.0483C192.113 31.9116 192.42 31.8433 192.76 31.8433C193.07 31.8433 193.335 31.8966 193.555 32.0033C193.778 32.1066 193.976 32.2516 194.15 32.4383V29.6333H195.04ZM201.729 33.5483C202.006 33.5483 202.249 33.5116 202.459 33.4383C202.672 33.365 202.851 33.2633 202.994 33.1333C203.141 33 203.251 32.8416 203.324 32.6583C203.397 32.475 203.434 32.2733 203.434 32.0533C203.434 31.5966 203.292 31.24 203.009 30.9833C202.729 30.7266 202.302 30.5983 201.729 30.5983H200.579V33.5483H201.729ZM201.729 29.8333C202.182 29.8333 202.576 29.8866 202.909 29.9933C203.246 30.0966 203.524 30.245 203.744 30.4383C203.964 30.6316 204.127 30.865 204.234 31.1383C204.344 31.4116 204.399 31.7166 204.399 32.0533C204.399 32.3866 204.341 32.6916 204.224 32.9683C204.107 33.245 203.936 33.4833 203.709 33.6833C203.486 33.8833 203.207 34.04 202.874 34.1533C202.544 34.2633 202.162 34.3183 201.729 34.3183H200.579V36.9983H199.614V29.8333H201.729ZM206.357 32.9483C206.517 32.6016 206.714 32.3316 206.947 32.1383C207.181 31.9416 207.466 31.8433 207.802 31.8433C207.909 31.8433 208.011 31.855 208.107 31.8783C208.207 31.9016 208.296 31.9383 208.372 31.9883L208.307 32.6533C208.287 32.7366 208.237 32.7783 208.157 32.7783C208.111 32.7783 208.042 32.7683 207.952 32.7483C207.862 32.7283 207.761 32.7183 207.647 32.7183C207.487 32.7183 207.344 32.7416 207.217 32.7883C207.094 32.835 206.982 32.905 206.882 32.9983C206.786 33.0883 206.697 33.2016 206.617 33.3383C206.541 33.4716 206.471 33.625 206.407 33.7983V36.9983H205.512V31.9333H206.022C206.119 31.9333 206.186 31.9516 206.222 31.9883C206.259 32.025 206.284 32.0883 206.297 32.1783L206.357 32.9483ZM211.285 31.8533C211.655 31.8533 211.988 31.915 212.285 32.0383C212.581 32.1616 212.835 32.3366 213.045 32.5633C213.255 32.79 213.415 33.065 213.525 33.3883C213.638 33.7083 213.695 34.0666 213.695 34.4633C213.695 34.8633 213.638 35.2233 213.525 35.5433C213.415 35.8633 213.255 36.1366 213.045 36.3633C212.835 36.59 212.581 36.765 212.285 36.8883C211.988 37.0083 211.655 37.0683 211.285 37.0683C210.911 37.0683 210.575 37.0083 210.275 36.8883C209.978 36.765 209.725 36.59 209.515 36.3633C209.305 36.1366 209.143 35.8633 209.03 35.5433C208.92 35.2233 208.865 34.8633 208.865 34.4633C208.865 34.0666 208.92 33.7083 209.03 33.3883C209.143 33.065 209.305 32.79 209.515 32.5633C209.725 32.3366 209.978 32.1616 210.275 32.0383C210.575 31.915 210.911 31.8533 211.285 31.8533ZM211.285 36.3733C211.785 36.3733 212.158 36.2066 212.405 35.8733C212.651 35.5366 212.775 35.0683 212.775 34.4683C212.775 33.865 212.651 33.395 212.405 33.0583C212.158 32.7216 211.785 32.5533 211.285 32.5533C211.031 32.5533 210.81 32.5966 210.62 32.6833C210.433 32.77 210.276 32.895 210.15 33.0583C210.026 33.2216 209.933 33.4233 209.87 33.6633C209.81 33.9 209.78 34.1683 209.78 34.4683C209.78 35.0683 209.903 35.5366 210.15 35.8733C210.4 36.2066 210.778 36.3733 211.285 36.3733ZM219.227 31.9333L217.162 36.9983H216.362L214.297 31.9333H215.022C215.095 31.9333 215.155 31.9516 215.202 31.9883C215.248 32.025 215.28 32.0683 215.297 32.1183L216.582 35.3783C216.622 35.5016 216.657 35.6216 216.687 35.7383C216.717 35.855 216.745 35.9716 216.772 36.0883C216.798 35.9716 216.827 35.855 216.857 35.7383C216.887 35.6216 216.923 35.5016 216.967 35.3783L218.267 32.1183C218.287 32.065 218.32 32.0216 218.367 31.9883C218.413 31.9516 218.468 31.9333 218.532 31.9333H219.227ZM221.183 31.9333V36.9983H220.293V31.9333H221.183ZM221.373 30.3433C221.373 30.43 221.355 30.5116 221.318 30.5883C221.285 30.6616 221.238 30.7283 221.178 30.7883C221.121 30.845 221.053 30.89 220.973 30.9233C220.896 30.9566 220.815 30.9733 220.728 30.9733C220.641 30.9733 220.56 30.9566 220.483 30.9233C220.41 30.89 220.345 30.845 220.288 30.7883C220.231 30.7283 220.186 30.6616 220.153 30.5883C220.12 30.5116 220.103 30.43 220.103 30.3433C220.103 30.2566 220.12 30.175 220.153 30.0983C220.186 30.0183 220.231 29.95 220.288 29.8933C220.345 29.8333 220.41 29.7866 220.483 29.7533C220.56 29.72 220.641 29.7033 220.728 29.7033C220.815 29.7033 220.896 29.72 220.973 29.7533C221.053 29.7866 221.121 29.8333 221.178 29.8933C221.238 29.95 221.285 30.0183 221.318 30.0983C221.355 30.175 221.373 30.2566 221.373 30.3433ZM226.145 33.1383C225.979 32.915 225.799 32.76 225.605 32.6733C225.412 32.5833 225.195 32.5383 224.955 32.5383C224.485 32.5383 224.124 32.7066 223.87 33.0433C223.617 33.38 223.49 33.86 223.49 34.4833C223.49 34.8133 223.519 35.0966 223.575 35.3333C223.632 35.5666 223.715 35.76 223.825 35.9133C223.935 36.0633 224.07 36.1733 224.23 36.2433C224.39 36.3133 224.572 36.3483 224.775 36.3483C225.069 36.3483 225.324 36.2816 225.54 36.1483C225.76 36.015 225.962 35.8266 226.145 35.5833V33.1383ZM227.035 29.6333V36.9983H226.505C226.379 36.9983 226.299 36.9366 226.265 36.8133L226.185 36.1983C225.969 36.4583 225.722 36.6683 225.445 36.8283C225.169 36.9883 224.849 37.0683 224.485 37.0683C224.195 37.0683 223.932 37.0133 223.695 36.9033C223.459 36.79 223.257 36.625 223.09 36.4083C222.924 36.1916 222.795 35.9216 222.705 35.5983C222.615 35.275 222.57 34.9033 222.57 34.4833C222.57 34.11 222.62 33.7633 222.72 33.4433C222.82 33.12 222.964 32.84 223.15 32.6033C223.337 32.3666 223.565 32.1816 223.835 32.0483C224.109 31.9116 224.415 31.8433 224.755 31.8433C225.065 31.8433 225.33 31.8966 225.55 32.0033C225.774 32.1066 225.972 32.2516 226.145 32.4383V29.6333H227.035ZM232.031 33.9133C232.031 33.7066 232.001 33.5183 231.941 33.3483C231.884 33.175 231.799 33.0266 231.686 32.9033C231.576 32.7766 231.441 32.68 231.281 32.6133C231.121 32.5433 230.939 32.5083 230.736 32.5083C230.309 32.5083 229.971 32.6333 229.721 32.8833C229.474 33.13 229.321 33.4733 229.261 33.9133H232.031ZM232.751 36.2883C232.641 36.4216 232.509 36.5383 232.356 36.6383C232.203 36.735 232.038 36.815 231.861 36.8783C231.688 36.9416 231.508 36.9883 231.321 37.0183C231.134 37.0516 230.949 37.0683 230.766 37.0683C230.416 37.0683 230.093 37.01 229.796 36.8933C229.503 36.7733 229.248 36.6 229.031 36.3733C228.818 36.1433 228.651 35.86 228.531 35.5233C228.411 35.1866 228.351 34.8 228.351 34.3633C228.351 34.01 228.404 33.68 228.511 33.3733C228.621 33.0666 228.778 32.8016 228.981 32.5783C229.184 32.3516 229.433 32.175 229.726 32.0483C230.019 31.9183 230.349 31.8533 230.716 31.8533C231.019 31.8533 231.299 31.905 231.556 32.0083C231.816 32.1083 232.039 32.255 232.226 32.4483C232.416 32.6383 232.564 32.875 232.671 33.1583C232.778 33.4383 232.831 33.7583 232.831 34.1183C232.831 34.2583 232.816 34.3516 232.786 34.3983C232.756 34.445 232.699 34.4683 232.616 34.4683H229.231C229.241 34.7883 229.284 35.0666 229.361 35.3033C229.441 35.54 229.551 35.7383 229.691 35.8983C229.831 36.055 229.998 36.1733 230.191 36.2533C230.384 36.33 230.601 36.3683 230.841 36.3683C231.064 36.3683 231.256 36.3433 231.416 36.2933C231.579 36.24 231.719 36.1833 231.836 36.1233C231.953 36.0633 232.049 36.0083 232.126 35.9583C232.206 35.905 232.274 35.8783 232.331 35.8783C232.404 35.8783 232.461 35.9066 232.501 35.9633L232.751 36.2883ZM240.758 30.9533C240.728 31.0033 240.695 31.0416 240.658 31.0683C240.625 31.0916 240.583 31.1033 240.533 31.1033C240.476 31.1033 240.41 31.075 240.333 31.0183C240.256 30.9616 240.16 30.9 240.043 30.8333C239.93 30.7633 239.791 30.7 239.628 30.6433C239.468 30.5866 239.273 30.5583 239.043 30.5583C238.826 30.5583 238.635 30.5883 238.468 30.6483C238.305 30.705 238.166 30.7833 238.053 30.8833C237.943 30.9833 237.86 31.1016 237.803 31.2383C237.746 31.3716 237.718 31.5166 237.718 31.6733C237.718 31.8733 237.766 32.04 237.863 32.1733C237.963 32.3033 238.093 32.415 238.253 32.5083C238.416 32.6016 238.6 32.6833 238.803 32.7533C239.01 32.82 239.22 32.89 239.433 32.9633C239.65 33.0366 239.86 33.12 240.063 33.2133C240.27 33.3033 240.453 33.4183 240.613 33.5583C240.776 33.6983 240.906 33.87 241.003 34.0733C241.103 34.2766 241.153 34.5266 241.153 34.8233C241.153 35.1366 241.1 35.4316 240.993 35.7083C240.886 35.9816 240.73 36.22 240.523 36.4233C240.32 36.6266 240.068 36.7866 239.768 36.9033C239.471 37.02 239.133 37.0783 238.753 37.0783C238.286 37.0783 237.863 36.995 237.483 36.8283C237.103 36.6583 236.778 36.43 236.508 36.1433L236.788 35.6833C236.815 35.6466 236.846 35.6166 236.883 35.5933C236.923 35.5666 236.966 35.5533 237.013 35.5533C237.056 35.5533 237.105 35.5716 237.158 35.6083C237.215 35.6416 237.278 35.685 237.348 35.7383C237.418 35.7916 237.498 35.85 237.588 35.9133C237.678 35.9766 237.78 36.035 237.893 36.0883C238.01 36.1416 238.141 36.1866 238.288 36.2233C238.435 36.2566 238.6 36.2733 238.783 36.2733C239.013 36.2733 239.218 36.2416 239.398 36.1783C239.578 36.115 239.73 36.0266 239.853 35.9133C239.98 35.7966 240.076 35.6583 240.143 35.4983C240.21 35.3383 240.243 35.16 240.243 34.9633C240.243 34.7466 240.193 34.57 240.093 34.4333C239.996 34.2933 239.868 34.1766 239.708 34.0833C239.548 33.99 239.365 33.9116 239.158 33.8483C238.951 33.7816 238.741 33.715 238.528 33.6483C238.315 33.5783 238.105 33.4983 237.898 33.4083C237.691 33.3183 237.508 33.2016 237.348 33.0583C237.188 32.915 237.058 32.7366 236.958 32.5233C236.861 32.3066 236.813 32.04 236.813 31.7233C236.813 31.47 236.861 31.225 236.958 30.9883C237.058 30.7516 237.201 30.5416 237.388 30.3583C237.578 30.175 237.81 30.0283 238.083 29.9183C238.36 29.8083 238.676 29.7533 239.033 29.7533C239.433 29.7533 239.796 29.8166 240.123 29.9433C240.453 30.07 240.743 30.2533 240.993 30.4933L240.758 30.9533ZM244.618 31.8533C244.988 31.8533 245.322 31.915 245.618 32.0383C245.915 32.1616 246.168 32.3366 246.378 32.5633C246.588 32.79 246.748 33.065 246.858 33.3883C246.972 33.7083 247.028 34.0666 247.028 34.4633C247.028 34.8633 246.972 35.2233 246.858 35.5433C246.748 35.8633 246.588 36.1366 246.378 36.3633C246.168 36.59 245.915 36.765 245.618 36.8883C245.322 37.0083 244.988 37.0683 244.618 37.0683C244.245 37.0683 243.908 37.0083 243.608 36.8883C243.312 36.765 243.058 36.59 242.848 36.3633C242.638 36.1366 242.477 35.8633 242.363 35.5433C242.253 35.2233 242.198 34.8633 242.198 34.4633C242.198 34.0666 242.253 33.7083 242.363 33.3883C242.477 33.065 242.638 32.79 242.848 32.5633C243.058 32.3366 243.312 32.1616 243.608 32.0383C243.908 31.915 244.245 31.8533 244.618 31.8533ZM244.618 36.3733C245.118 36.3733 245.492 36.2066 245.738 35.8733C245.985 35.5366 246.108 35.0683 246.108 34.4683C246.108 33.865 245.985 33.395 245.738 33.0583C245.492 32.7216 245.118 32.5533 244.618 32.5533C244.365 32.5533 244.143 32.5966 243.953 32.6833C243.767 32.77 243.61 32.895 243.483 33.0583C243.36 33.2216 243.267 33.4233 243.203 33.6633C243.143 33.9 243.113 34.1683 243.113 34.4683C243.113 35.0683 243.237 35.5366 243.483 35.8733C243.733 36.2066 244.112 36.3733 244.618 36.3733ZM249.277 29.6333V36.9983H248.387V29.6333H249.277ZM255.085 31.9333V36.9983H254.555C254.429 36.9983 254.349 36.9366 254.315 36.8133L254.245 36.2683C254.025 36.5116 253.779 36.7083 253.505 36.8583C253.232 37.005 252.919 37.0783 252.565 37.0783C252.289 37.0783 252.044 37.0333 251.83 36.9433C251.62 36.85 251.444 36.72 251.3 36.5533C251.157 36.3866 251.049 36.185 250.975 35.9483C250.905 35.7116 250.87 35.45 250.87 35.1633V31.9333H251.76V35.1633C251.76 35.5466 251.847 35.8433 252.02 36.0533C252.197 36.2633 252.465 36.3683 252.825 36.3683C253.089 36.3683 253.334 36.3066 253.56 36.1833C253.79 36.0566 254.002 35.8833 254.195 35.6633V31.9333H255.085ZM261.397 36.9983H260.507V32.6783H257.897V35.7183C257.897 35.9316 257.948 36.09 258.052 36.1933C258.155 36.2966 258.288 36.3483 258.452 36.3483C258.545 36.3483 258.625 36.3366 258.692 36.3133C258.762 36.2866 258.822 36.2583 258.872 36.2283C258.922 36.1983 258.963 36.1716 258.997 36.1483C259.033 36.1216 259.065 36.1083 259.092 36.1083C259.138 36.1083 259.18 36.1366 259.217 36.1933L259.477 36.6183C259.323 36.7616 259.138 36.875 258.922 36.9583C258.705 37.0383 258.482 37.0783 258.252 37.0783C257.852 37.0783 257.543 36.9666 257.327 36.7433C257.113 36.52 257.007 36.1983 257.007 35.7783V32.6783H256.397C256.343 32.6783 256.298 32.6633 256.262 32.6333C256.225 32.6 256.207 32.55 256.207 32.4833V32.1283L257.037 32.0183L257.242 30.4583C257.252 30.4083 257.273 30.3683 257.307 30.3383C257.343 30.305 257.39 30.2883 257.447 30.2883H257.897V32.0333H261.397V36.9983ZM261.617 30.3083C261.617 30.395 261.598 30.4766 261.562 30.5533C261.528 30.6266 261.482 30.6916 261.422 30.7483C261.365 30.805 261.298 30.85 261.222 30.8833C261.145 30.9166 261.063 30.9333 260.977 30.9333C260.89 30.9333 260.808 30.9166 260.732 30.8833C260.658 30.85 260.593 30.805 260.537 30.7483C260.48 30.6916 260.435 30.6266 260.402 30.5533C260.368 30.4766 260.352 30.395 260.352 30.3083C260.352 30.2216 260.368 30.14 260.402 30.0633C260.435 29.9833 260.48 29.915 260.537 29.8583C260.593 29.7983 260.658 29.7516 260.732 29.7183C260.808 29.685 260.89 29.6683 260.977 29.6683C261.063 29.6683 261.145 29.685 261.222 29.7183C261.298 29.7516 261.365 29.7983 261.422 29.8583C261.482 29.915 261.528 29.9833 261.562 30.0633C261.598 30.14 261.617 30.2216 261.617 30.3083ZM265.194 31.8533C265.564 31.8533 265.897 31.915 266.194 32.0383C266.49 32.1616 266.744 32.3366 266.954 32.5633C267.164 32.79 267.324 33.065 267.434 33.3883C267.547 33.7083 267.604 34.0666 267.604 34.4633C267.604 34.8633 267.547 35.2233 267.434 35.5433C267.324 35.8633 267.164 36.1366 266.954 36.3633C266.744 36.59 266.49 36.765 266.194 36.8883C265.897 37.0083 265.564 37.0683 265.194 37.0683C264.82 37.0683 264.484 37.0083 264.184 36.8883C263.887 36.765 263.634 36.59 263.424 36.3633C263.214 36.1366 263.052 35.8633 262.939 35.5433C262.829 35.2233 262.774 34.8633 262.774 34.4633C262.774 34.0666 262.829 33.7083 262.939 33.3883C263.052 33.065 263.214 32.79 263.424 32.5633C263.634 32.3366 263.887 32.1616 264.184 32.0383C264.484 31.915 264.82 31.8533 265.194 31.8533ZM265.194 36.3733C265.694 36.3733 266.067 36.2066 266.314 35.8733C266.56 35.5366 266.684 35.0683 266.684 34.4683C266.684 33.865 266.56 33.395 266.314 33.0583C266.067 32.7216 265.694 32.5533 265.194 32.5533C264.94 32.5533 264.719 32.5966 264.529 32.6833C264.342 32.77 264.185 32.895 264.059 33.0583C263.935 33.2216 263.842 33.4233 263.779 33.6633C263.719 33.9 263.689 34.1683 263.689 34.4683C263.689 35.0683 263.812 35.5366 264.059 35.8733C264.309 36.2066 264.687 36.3733 265.194 36.3733ZM269.773 32.6683C269.883 32.545 269.999 32.4333 270.123 32.3333C270.246 32.2333 270.376 32.1483 270.513 32.0783C270.653 32.005 270.799 31.95 270.953 31.9133C271.109 31.8733 271.278 31.8533 271.458 31.8533C271.734 31.8533 271.978 31.9 272.188 31.9933C272.401 32.0833 272.578 32.2133 272.718 32.3833C272.861 32.55 272.969 32.7516 273.043 32.9883C273.116 33.225 273.153 33.4866 273.153 33.7733V36.9983H272.258V33.7733C272.258 33.39 272.169 33.0933 271.993 32.8833C271.819 32.67 271.554 32.5633 271.198 32.5633C270.934 32.5633 270.688 32.6266 270.458 32.7533C270.231 32.88 270.021 33.0516 269.828 33.2683V36.9983H268.933V31.9333H269.468C269.594 31.9333 269.673 31.995 269.703 32.1183L269.773 32.6683Z" fill="#062E4B"/>
</svg>
