<svg width="57" height="46" viewBox="0 0 57 46" fill="none" xmlns="http://www.w3.org/2000/svg">
<path d="M13.9628 45.4C11.3228 45.4 9.16281 44.86 7.48281 43.78C5.80281 42.7 4.42281 41.32 3.34281 39.64C2.14281 37.6 1.30281 35.5 0.822813 33.34C0.462813 31.06 0.282813 29.2 0.282813 27.76C0.282813 21.88 1.78281 16.54 4.78281 11.74C7.78281 6.94 12.4628 3.03999 18.8228 0.0399888L20.4428 3.27999C16.7228 4.83999 13.4828 7.29999 10.7228 10.66C8.08281 14.02 6.76281 17.44 6.76281 20.92C6.76281 22.36 6.94281 23.62 7.30281 24.7C9.22281 23.14 11.4428 22.36 13.9628 22.36C17.0828 22.36 19.7828 23.38 22.0628 25.42C24.3428 27.46 25.4828 30.28 25.4828 33.88C25.4828 37.24 24.3428 40 22.0628 42.16C19.7828 44.32 17.0828 45.4 13.9628 45.4ZM44.5628 45.4C41.9228 45.4 39.7628 44.86 38.0828 43.78C36.4028 42.7 35.0228 41.32 33.9428 39.64C32.7428 37.6 31.9028 35.5 31.4228 33.34C31.0628 31.06 30.8828 29.2 30.8828 27.76C30.8828 21.88 32.3828 16.54 35.3828 11.74C38.3828 6.94 43.0628 3.03999 49.4228 0.0399888L51.0428 3.27999C47.3228 4.83999 44.0828 7.29999 41.3228 10.66C38.6828 14.02 37.3628 17.44 37.3628 20.92C37.3628 22.36 37.5428 23.62 37.9028 24.7C39.8228 23.14 42.0428 22.36 44.5628 22.36C47.6828 22.36 50.3828 23.38 52.6628 25.42C54.9428 27.46 56.0828 30.28 56.0828 33.88C56.0828 37.24 54.9428 40 52.6628 42.16C50.3828 44.32 47.6828 45.4 44.5628 45.4Z" fill="#007DFE"/>
</svg>
